# xmcd CD database file
#
# Track frame offsets:
#	150
#	16529
#	39226
#	57832
#	85579
#	99471
#	118670
#	129531
#	154432
#	175429
#	194530
#	204764
#	228574
#
# Disc length: 3256 seconds
#
# Revision: 0
# Processed by: cddbd v1.5.2PL0 Copyright (c) Steve Scherf et al.
# Submitted via: CDex 1.51
#
DISCID=a10cb60d
DTITLE=Sampler - Blues From A Smoky Bar Part 2  CD 1
DYEAR=2015
DGENRE=Blues
TTITLE0=Rudy Rota - You`re Gone
TTITLE1=Geoff Achison and The Souldiggers - Wagging The Dog
TTITLE2=Grg Koch Trio - Sleep Tight
TTITLE3=Mark Selby - Trouble Wants
TTITLE4=Charles Brown - Black Night
TTITLE5=Delta Moon - Walk Out In The River
TTITLE6=Robert Johnson - Love In Vain
TTITLE7=Raphael Wressnig feat. Jon Clearly - Sometimes I Wonder
TTITLE8=Bonnie Tyler - Love Is The Knife
TTITLE9=Get The Cat - Maria Knows Them All
TTITLE10=Muddy Waters - Mean Red Spider
TTITLE11=Earl Thomas - Standing In The Rain
TTITLE12=Dr. Will - She`s Gone
EXTD=YEAR: 2015
EXTT0=
EXTT1=
EXTT2=
EXTT3=
EXTT4=
EXTT5=
EXTT6=
EXTT7=
EXTT8=
EXTT9=
EXTT10=
EXTT11=
EXTT12=
PLAYORDER=
